<?xml version="1.0" standalone="no"?>
<!DOCTYPE svg PUBLIC "-//W3C//DTD SVG 20010904//EN"
 "http://www.w3.org/TR/2001/REC-SVG-20010904/DTD/svg10.dtd">
<svg version="1.0" xmlns="http://www.w3.org/2000/svg"
 width="16.000000pt" height="16.000000pt" viewBox="0 0 16.000000 16.000000"
 preserveAspectRatio="xMidYMid meet">
<metadata>
Created by potrace 1.11, written by Peter Selinger 2001-2013
</metadata>
<g transform="translate(0.000000,16.000000) scale(0.006154,-0.006154)"
fill="#000000" stroke="none">
<path d="M39 2561 l-29 -29 0 -1232 0 -1232 29 -29 29 -29 1232 0 1232 0 29
29 29 29 0 1232 0 1232 -29 29 -29 29 -1232 0 -1232 0 -29 -29z m2081 -1221
l0 -730 -795 0 -795 0 0 730 0 730 795 0 795 0 0 -730z"/>
<path d="M1329 1862 c-91 -30 -157 -72 -223 -142 -95 -101 -154 -242 -176
-420 -41 -345 56 -549 264 -550 49 0 65 5 94 26 49 38 67 87 96 263 14 85 27
155 28 156 2 1 34 7 71 14 38 6 92 21 121 31 69 26 154 103 191 174 28 53 30
65 30 164 0 91 -3 113 -22 147 -27 51 -75 96 -133 126 -63 32 -256 38 -341 11z
m228 -160 c87 -41 98 -196 20 -281 -22 -24 -111 -71 -134 -71 -9 0 -10 7 -4
23 11 29 31 158 31 203 0 50 -15 72 -55 80 -43 8 -75 0 -106 -24 -19 -16 -26
-40 -44 -148 l-21 -129 -43 -2 c-57 -2 -71 -16 -71 -74 0 -51 6 -59 54 -69 34
-7 34 -4 15 -120 -17 -100 -33 -153 -47 -158 -7 -2 -23 20 -40 55 -25 55 -27
66 -26 193 1 199 43 332 140 439 92 102 222 135 331 83z"/>
</g>
</svg>
